<?xml version="1.0" standalone="no"?>
<!DOCTYPE svg PUBLIC "-//W3C//DTD SVG 20010904//EN"
 "http://www.w3.org/TR/2001/REC-SVG-20010904/DTD/svg10.dtd">
<svg version="1.0" xmlns="http://www.w3.org/2000/svg"
 width="677.000000pt" height="677.000000pt" viewBox="0 0 677.000000 677.000000"
 preserveAspectRatio="xMidYMid meet">
<metadata>
Created by potrace 1.14, written by Peter Selinger 2001-2017
</metadata>
<g transform="translate(0.000000,677.000000) scale(0.100000,-0.100000)"
fill="#000000" stroke="none">
<path d="M3084 5859 c-34 -4 -81 -17 -105 -29 l-42 -22 49 -30 c27 -17 52 -33
56 -37 4 -3 -77 -6 -180 -6 -202 -1 -178 3 -642 -101 -85 -18 -145 -25 -229
-26 l-113 0 6 -44 c6 -49 24 -83 70 -131 16 -18 28 -34 25 -36 -2 -2 -38 -16
-80 -31 -253 -90 -438 -280 -595 -611 -40 -85 -59 -114 -84 -128 -48 -29 -171
-155 -216 -222 -94 -141 -135 -281 -137 -470 -1 -127 16 -278 35 -306 7 -12
11 -11 21 5 22 35 59 76 67 76 5 0 -6 -33 -25 -72 -45 -100 -63 -154 -80 -255
-49 -278 33 -531 237 -735 48 -49 92 -88 99 -88 7 0 8 13 2 43 -11 56 -8 137
7 184 13 39 49 123 53 123 1 0 2 -53 2 -117 0 -100 4 -127 24 -176 41 -103
119 -204 309 -400 306 -315 374 -430 385 -642 l2 -50 63 107 c74 127 102 189
102 229 0 45 14 34 27 -20 30 -125 105 -241 250 -383 59 -58 127 -123 151
-143 140 -124 222 -288 222 -447 0 -38 4 -68 10 -68 14 0 109 58 158 98 24 19
57 59 74 90 18 30 34 50 36 44 2 -6 -4 -52 -12 -101 -20 -114 -20 -154 -1
-217 18 -59 57 -137 70 -140 6 -2 21 20 35 49 23 47 32 55 97 87 40 19 93 55
118 80 78 77 55 -2 -44 -151 -65 -96 -83 -145 -84 -224 -1 -57 21 -155 34
-155 5 0 15 13 23 29 39 74 109 129 281 221 134 71 192 109 241 159 46 45 84
117 84 156 0 31 16 33 24 2 9 -37 75 -106 127 -133 l49 -24 0 27 c0 76 37 141
172 301 195 233 271 380 298 578 7 49 11 113 9 142 -2 29 0 52 4 52 21 0 39
-78 38 -167 0 -51 3 -93 7 -93 16 0 177 183 234 265 81 118 137 245 159 365
19 98 14 287 -10 423 -25 143 -25 152 -1 107 64 -121 194 -206 345 -227 l49
-6 -34 42 c-95 116 -134 172 -166 239 -30 62 -37 89 -45 180 -12 135 -37 221
-89 301 -44 68 -45 96 -2 44 98 -117 111 -129 158 -146 50 -17 139 -23 148 -9
2 4 -16 28 -40 52 -91 91 -118 193 -107 403 l6 118 18 -28 c10 -15 21 -40 25
-56 3 -15 11 -26 17 -24 19 6 29 76 25 169 -3 72 -9 97 -34 145 l-30 58 28 63
c61 135 74 264 39 380 -21 67 -60 142 -96 182 -24 27 -68 120 -57 120 4 0 33
-23 65 -50 32 -28 63 -50 68 -50 11 0 -51 136 -101 221 -64 108 -133 153 -255
165 -61 6 -65 8 -59 28 13 39 4 141 -16 196 -24 64 -89 155 -110 155 -11 0
-17 -17 -21 -57 -6 -56 -30 -108 -49 -108 -6 0 -10 22 -10 50 0 92 -33 154
-141 265 -54 55 -100 98 -102 95 -3 -3 0 -42 6 -87 11 -90 2 -146 -25 -151
-12 -2 -22 8 -32 33 -57 135 -211 247 -474 344 -46 17 -89 31 -97 31 -7 0 15
-28 50 -63 58 -58 102 -123 92 -133 -3 -3 -38 20 -78 51 -169 127 -429 230
-645 255 -98 11 -103 11 -190 -1z m258 -135 c73 -19 160 -57 239 -105 102 -62
290 -204 275 -207 -27 -6 -209 48 -273 80 -34 17 -95 56 -135 86 -40 31 -106
80 -147 109 -82 60 -75 66 41 37z m-176 -152 c104 -28 265 -113 278 -149 7
-18 1 -17 -124 22 -74 23 -99 26 -200 24 -63 -1 -161 -1 -216 0 -56 1 -173 -5
-260 -14 -229 -23 -351 -22 -408 4 -25 11 -46 24 -46 29 0 5 41 12 92 16 50 4
112 11 137 16 117 23 370 70 401 74 74 9 276 -4 346 -22z m-373 -267 c48 -10
87 -21 87 -24 0 -3 -36 -5 -80 -3 -44 2 -93 1 -108 -3 -22 -6 -10 -11 66 -26
210 -41 313 -109 363 -239 30 -80 24 -86 -33 -28 -44 44 -147 108 -173 108 -4
0 -4 -12 0 -27 9 -34 7 -116 -4 -145 -7 -20 -11 -17 -43 33 -50 79 -146 163
-233 204 -88 43 -119 43 -123 1 -4 -31 -4 -31 -126 -6 -71 14 -344 9 -396 -8
-35 -12 -35 -12 -37 -76 -3 -119 -31 -147 -251 -257 -68 -33 -141 -77 -163
-96 -22 -20 -42 -33 -45 -30 -4 3 6 37 21 76 90 237 314 422 620 514 48 15
191 42 265 51 74 9 309 -3 393 -19z m762 -76 c22 -5 103 -41 180 -80 135 -67
227 -100 241 -87 3 4 -3 22 -15 41 -27 44 -52 115 -42 121 12 8 175 -77 234
-121 46 -35 117 -122 117 -143 0 -3 -21 -16 -46 -28 -26 -13 -44 -25 -41 -28
2 -3 34 0 70 7 82 15 177 1 269 -38 l63 -28 -74 -7 c-54 -6 -88 -16 -127 -38
-62 -35 -82 -36 -154 -13 -57 18 -57 18 28 44 23 7 40 15 36 18 -3 3 -45 6
-92 7 -104 2 -149 13 -262 64 -149 68 -242 84 -335 55 -49 -14 -155 -80 -155
-96 0 -5 15 -9 33 -9 l34 0 7 -102 c5 -86 11 -113 36 -164 44 -90 130 -162
130 -108 0 9 10 14 27 14 22 0 107 34 175 70 22 12 167 47 248 60 83 13 217
13 225 0 10 -16 65 -12 65 4 0 8 -7 16 -15 20 -27 10 -16 33 27 52 82 37 209
21 361 -45 57 -24 101 -27 148 -7 38 16 70 8 107 -26 31 -30 28 -37 -16 -25
-31 8 -47 6 -97 -14 -59 -24 -61 -24 -110 -6 -62 21 -123 17 -165 -13 -39 -28
-73 -29 -108 -3 -53 38 -56 39 -48 7 15 -59 50 -82 208 -139 97 -34 147 -85
155 -159 13 -116 -104 -172 -424 -201 -89 -9 -197 -22 -239 -30 -170 -32 -273
-112 -299 -232 -3 -18 -10 -33 -14 -33 -4 0 -22 25 -40 55 -32 53 -33 58 -21
95 30 91 148 222 256 285 37 22 62 41 56 43 -16 5 -190 -83 -299 -152 -141
-89 -283 -207 -435 -359 -71 -71 -131 -128 -133 -126 -2 2 17 30 41 62 24 31
44 62 44 69 0 6 -26 41 -58 77 -66 74 -122 149 -122 163 0 5 37 -29 81 -77 45
-47 94 -94 109 -105 l27 -19 22 30 23 31 -28 29 c-31 32 -19 37 28 13 29 -15
31 -14 55 8 28 27 27 45 -11 139 l-24 61 81 39 c44 21 82 37 84 35 3 -2 -3
-28 -11 -57 -15 -50 -22 -119 -11 -119 3 0 25 15 50 34 24 19 71 52 104 73 33
21 67 51 76 66 53 89 205 182 379 231 49 14 92 29 95 32 13 15 -143 -6 -241
-32 -230 -60 -500 -188 -760 -360 -57 -37 -45 -10 15 34 28 22 62 50 74 63
l22 24 -35 45 c-43 53 -74 112 -74 137 1 14 6 12 26 -12 96 -113 126 -145 134
-140 4 3 -7 33 -25 67 -83 156 -98 346 -40 493 8 20 8 20 -13 2 -11 -11 -28
-35 -37 -54 -11 -23 -20 -32 -27 -25 -13 13 7 154 28 198 21 44 89 104 159
140 63 33 67 51 17 74 l-34 14 43 21 c23 11 42 25 43 30 1 10 -40 33 -104 59
l-35 14 30 1 c17 1 48 -4 70 -10z m957 -142 c24 -13 69 -42 101 -65 61 -46
191 -171 184 -178 -2 -2 -36 14 -76 35 -118 65 -197 93 -283 99 -75 5 -80 6
-94 34 -9 17 -13 32 -10 35 6 6 117 -26 133 -38 15 -13 25 4 16 28 -3 10 -15
30 -25 46 -25 35 -7 36 54 4z m-2131 -56 c77 -26 130 -55 158 -85 37 -39 51
-34 51 20 0 42 2 45 16 33 29 -24 91 -123 108 -172 20 -61 22 -177 2 -177 -7
0 -19 20 -26 45 -27 96 -122 194 -237 245 -59 26 -71 25 -45 -3 12 -13 22 -25
22 -28 0 -2 -36 -3 -80 -1 -66 4 -87 0 -125 -18 -32 -16 -43 -26 -36 -33 7 -7
1 -21 -21 -46 -51 -58 -72 -117 -71 -194 1 -46 7 -74 17 -85 18 -21 36 -124
36 -208 0 -52 -6 -74 -40 -140 -30 -61 -40 -93 -42 -139 -2 -33 1 -62 6 -65 4
-3 18 20 30 50 l21 55 6 -130 c4 -95 13 -158 34 -235 30 -115 39 -287 17 -325
-6 -11 -12 -15 -12 -10 -4 89 -53 266 -101 366 l-20 44 5 -40 c3 -22 8 -58 12
-80 6 -38 5 -39 -10 -19 -27 37 -66 170 -73 255 l-8 82 -33 -28 c-18 -15 -35
-26 -37 -24 -2 2 7 35 21 73 28 82 42 166 26 166 -6 0 -28 -11 -48 -25 -55
-37 -89 -30 -45 9 28 25 57 106 41 116 -9 6 -8 18 4 54 9 26 16 54 16 64 1 49
17 45 90 -17 40 -34 74 -60 77 -57 3 2 -4 35 -15 73 -54 179 -59 276 -21 408
12 44 25 107 28 140 l6 60 77 1 c43 0 81 3 84 7 4 4 3 7 -2 7 -5 0 -20 10 -34
21 l-25 21 71 -6 c38 -3 95 -14 125 -25z m1409 -196 c55 -28 64 -45 25 -45
-34 0 -31 -17 10 -56 28 -26 47 -34 92 -40 50 -6 54 -8 33 -16 -38 -14 -106 0
-141 30 -40 33 -97 152 -74 152 3 0 28 -11 55 -25z m-1928 -245 c-63 -78 -92
-137 -142 -296 -67 -208 -111 -298 -200 -404 -22 -26 -40 -51 -40 -54 0 -18
84 -3 136 25 100 54 136 71 141 66 2 -3 0 -22 -6 -44 -19 -67 -13 -162 20
-293 23 -93 29 -140 26 -182 -4 -45 -2 -56 9 -51 20 8 59 98 79 186 10 42 22
77 26 77 13 0 23 -68 24 -150 0 -88 -21 -208 -47 -265 l-18 -40 6 53 c7 58
-10 73 -21 20 -9 -41 -49 -122 -105 -213 -48 -78 -80 -148 -80 -174 0 -9 -7
-26 -16 -37 -14 -18 -15 -15 -10 36 3 31 17 89 31 130 39 112 43 184 15 269
-22 69 -40 85 -40 35 0 -31 -21 -73 -50 -99 l-22 -20 -29 33 c-16 18 -29 42
-29 55 -1 19 -2 20 -10 5 -7 -11 -7 -25 0 -42 7 -20 6 -26 -4 -26 -19 0 -39
102 -31 162 10 69 74 192 134 258 55 59 56 60 40 60 -18 0 -302 -117 -354
-146 -142 -80 -194 -206 -195 -467 -1 -109 -8 -102 -45 43 -35 133 -32 256 8
363 55 150 197 344 418 571 72 75 130 138 128 140 -11 8 -172 26 -235 26 -127
0 -193 -36 -278 -153 -58 -80 -68 -73 -37 26 35 115 78 187 160 268 63 62 95
84 181 126 58 29 150 66 205 83 55 17 145 47 200 65 55 19 101 35 102 35 2 0
-19 -27 -45 -60z m3326 -165 c32 -49 62 -144 62 -194 0 -35 -32 -166 -43 -177
-3 -3 -23 14 -46 38 -22 25 -63 60 -90 78 -53 37 -64 59 -63 131 1 45 10 63
70 146 l45 62 20 -22 c11 -12 31 -40 45 -62z m-2316 28 c-59 -71 -119 -168
-142 -229 -23 -63 -25 -120 -8 -254 11 -88 10 -100 -10 -158 -21 -63 -20 -71
9 -49 36 28 52 80 60 203 10 153 16 188 45 245 26 53 66 90 135 125 67 33 74
31 45 -19 -70 -119 -86 -210 -96 -552 -9 -289 -19 -377 -56 -488 -9 -26 -14
-50 -12 -53 8 -7 53 38 87 85 52 73 72 156 81 332 4 91 13 166 20 179 12 23
13 23 40 -31 43 -85 63 -184 58 -288 -4 -78 -9 -98 -41 -163 -36 -73 -61 -105
-189 -253 -37 -43 -75 -95 -85 -116 -22 -51 -36 -49 -28 4 10 65 47 137 101
197 l49 54 -49 -34 c-26 -19 -56 -45 -66 -57 -10 -13 -20 -23 -23 -23 -3 0 -3
80 0 178 4 146 2 188 -12 241 -9 36 -23 74 -30 85 -13 17 -15 18 -21 3 -3 -9
-3 -24 0 -33 3 -8 3 -47 0 -85 -5 -53 -14 -81 -36 -116 -23 -35 -32 -43 -38
-32 -10 15 -10 16 -59 -49 -19 -24 -36 -41 -39 -38 -2 3 5 29 16 58 12 29 26
76 33 103 13 61 14 280 1 315 -9 23 -10 20 -21 -30 -13 -61 -24 -83 -61 -126
-43 -51 -46 -49 -46 54 0 107 -12 212 -25 212 -4 0 -11 -21 -15 -47 -4 -27
-10 -57 -14 -68 -14 -35 -23 29 -16 101 12 116 72 229 174 328 28 28 50 51 48
53 -8 8 -187 -52 -235 -78 -29 -17 -55 -28 -58 -26 -7 8 31 64 75 111 23 25
37 46 30 48 -20 7 73 67 146 94 128 47 220 85 266 109 25 13 47 24 48 25 2 0
-14 -21 -36 -47z m2134 -361 c22 -16 63 -52 92 -80 58 -57 65 -84 35 -149 -26
-57 -83 -143 -96 -143 -7 0 -8 38 -4 118 4 66 4 122 0 125 -3 4 -14 -7 -24
-23 -11 -17 -23 -30 -27 -30 -5 0 -17 21 -27 48 l-19 47 -18 -42 c-10 -24 -23
-43 -27 -43 -5 0 -18 21 -29 47 l-20 47 -22 -47 c-12 -26 -24 -47 -26 -47 -2
0 -12 18 -21 40 -10 22 -20 40 -24 40 -3 0 -13 -17 -23 -37 -17 -36 -19 -37
-32 -18 -8 10 -14 22 -14 27 0 4 -4 8 -9 8 -5 0 -15 -26 -22 -57 -15 -75 -55
-166 -69 -158 -30 18 -101 208 -84 224 5 5 47 15 94 21 126 17 273 60 320 93
34 23 51 21 96 -11z m-1342 -292 c38 -78 86 -141 73 -95 -33 113 -10 97 57
-37 31 -62 59 -129 63 -148 6 -34 5 -34 -71 43 -43 43 -80 77 -82 75 -2 -3 1
-19 6 -38 11 -38 4 -54 -11 -27 -16 29 -110 149 -146 187 l-33 35 37 30 c20
17 42 35 47 42 6 7 13 12 16 13 3 0 23 -36 44 -80z m-115 -142 c44 -46 97
-105 117 -133 42 -59 94 -158 94 -180 0 -8 5 -15 11 -15 14 0 5 119 -11 149
-20 39 10 32 53 -12 42 -42 112 -169 136 -247 23 -77 51 -213 45 -219 -8 -8
-60 54 -84 99 -10 19 -23 55 -30 79 -18 66 -32 37 -19 -39 17 -103 77 -215
153 -292 120 -119 252 -161 434 -139 147 18 216 15 248 -12 26 -23 27 -24 10
-59 -9 -19 -39 -62 -66 -94 -28 -32 -67 -80 -87 -106 -21 -26 -42 -45 -48 -44
-20 6 -6 66 29 124 20 33 39 75 42 93 8 40 5 38 -61 -51 -27 -36 -86 -103
-130 -150 -45 -47 -87 -95 -94 -107 -18 -35 -31 -28 -31 16 0 50 13 84 50 131
17 21 30 40 30 43 0 3 -17 1 -37 -5 -52 -14 -112 -4 -183 32 -33 16 -83 33
-112 38 -49 7 -51 8 -34 24 23 23 79 38 146 38 46 0 52 2 40 14 -8 7 -49 26
-90 41 -154 57 -294 137 -373 214 -63 60 -99 133 -126 256 -31 137 -48 191
-83 254 -16 29 -27 55 -25 57 2 2 29 -22 59 -54 56 -58 98 -127 98 -159 0 -12
3 -14 11 -6 8 8 7 33 -4 89 -23 120 -80 237 -170 346 -21 26 -36 52 -32 58 15
24 47 5 124 -72z m883 -459 c3 -24 7 -70 7 -101 1 -32 6 -58 11 -58 6 0 10 5
10 10 0 6 7 10 15 10 8 0 15 -5 15 -11 0 -8 5 -7 16 2 12 10 17 10 23 1 4 -7
15 -10 25 -6 11 4 21 1 26 -6 7 -11 11 -11 24 -1 12 10 19 11 30 2 10 -9 22
-2 52 31 22 24 49 56 62 72 12 16 25 26 29 22 4 -4 2 -41 -4 -82 -13 -89 -53
-151 -94 -146 -61 7 -78 10 -87 16 -16 10 -111 16 -116 8 -2 -4 -36 -9 -73
-10 -58 -1 -73 2 -91 19 -33 30 -27 66 23 143 25 38 50 84 57 103 16 44 31 37
40 -18z m-1027 -32 c45 -96 59 -187 59 -372 0 -162 -10 -254 -45 -415 -11 -54
-27 -54 -30 0 -1 29 -7 9 -34 -130 -16 -77 -76 -276 -93 -307 -10 -18 -25 -5
-60 52 -33 54 -62 142 -62 187 0 15 -4 28 -9 28 -19 0 -51 -124 -51 -201 0
-38 -12 -51 -25 -28 -4 5 -15 49 -26 97 l-19 87 5 -81 c4 -62 15 -108 45 -190
64 -171 88 -311 61 -353 -12 -19 -47 58 -102 222 -54 158 -79 295 -86 460 l-6
137 55 0 c30 0 58 3 61 6 4 4 -5 20 -18 36 -29 34 -55 115 -55 169 0 128 80
301 224 486 23 29 47 51 55 50 8 -1 20 -20 28 -42 19 -54 8 -94 -65 -236 -84
-163 -101 -279 -66 -446 21 -102 107 -323 121 -310 2 3 -5 51 -17 107 -25 126
-27 283 -4 361 9 30 36 92 62 139 98 182 96 176 100 290 2 81 -1 121 -16 178
-11 39 -18 72 -15 72 2 0 15 -24 28 -53z m-1396 -217 c-30 -93 -36 -160 -19
-204 13 -36 22 -33 43 18 19 45 75 103 161 164 25 18 58 51 72 73 14 23 27 39
29 37 2 -2 0 -21 -6 -43 -5 -22 -9 -86 -10 -142 -1 -151 30 -244 110 -332 33
-36 42 -41 47 -27 3 9 4 26 1 37 -16 62 44 232 137 383 l24 40 -5 -91 c-7
-119 11 -198 98 -434 38 -103 81 -231 95 -285 32 -126 68 -374 54 -374 -11 0
-86 54 -123 89 -55 52 -79 95 -103 186 -19 71 -22 77 -29 52 -11 -43 0 -144
25 -217 25 -72 62 -132 131 -205 25 -27 62 -74 82 -103 42 -62 91 -182 73
-182 -2 0 -61 57 -132 128 -76 74 -139 146 -152 172 -23 44 -23 44 -16 10 3
-19 15 -52 26 -73 26 -53 17 -56 -21 -8 -43 53 -106 192 -122 266 -21 98 -17
276 9 370 12 44 25 91 28 105 6 20 -1 16 -36 -23 -24 -26 -61 -62 -83 -79
l-40 -32 7 39 8 40 -29 -26 c-15 -15 -40 -34 -56 -44 l-27 -17 -20 46 c-37 83
-61 197 -63 298 -1 54 -5 98 -10 98 -12 0 -80 -110 -137 -221 -28 -54 -55 -99
-60 -99 -5 0 -11 8 -14 18 -10 31 -26 156 -26 207 0 28 -5 57 -10 65 -7 11
-10 -5 -10 -52 0 -65 -12 -94 -24 -62 -3 9 -6 59 -6 112 1 78 6 113 28 177 26
78 108 235 123 235 4 0 -6 -41 -22 -90z m1704 -257 c75 -91 82 -117 82 -318 0
-197 -8 -275 -30 -275 -11 0 -13 -38 -14 -195 0 -108 -3 -200 -7 -206 -11 -18
-52 31 -71 85 -11 33 -17 79 -16 129 1 42 0 77 -2 77 -1 0 -15 -25 -29 -56
-58 -122 -71 -279 -35 -409 35 -129 50 -208 44 -237 -9 -39 -21 -27 -29 28 -3
25 -22 91 -41 147 -20 56 -38 131 -41 167 -7 86 -12 99 -25 80 -22 -31 3 92
57 286 111 400 142 589 115 707 -11 46 -4 44 42 -10z m1215 -244 c2 -31 -1
-74 -8 -95 -12 -38 -107 -214 -116 -214 -2 0 8 31 21 69 14 38 25 72 25 75 0
10 -105 -78 -148 -123 -38 -39 -54 -36 -84 15 -32 56 -31 85 2 138 35 55 48
57 25 3 -8 -20 -15 -49 -15 -65 0 -33 19 -92 29 -92 4 0 21 18 38 40 17 23 62
67 99 98 112 94 134 145 99 229 -21 49 -18 54 7 14 14 -21 23 -55 26 -92z
m-873 -179 c81 -125 84 -144 75 -425 -2 -78 1 -127 13 -170 20 -79 57 -175 66
-175 4 0 7 66 8 148 0 176 14 222 95 322 29 36 69 89 90 119 39 55 50 49 24
-14 -28 -66 -48 -195 -44 -286 3 -83 2 -88 -16 -83 -16 5 -18 3 -11 -12 4 -11
10 -65 13 -121 3 -78 0 -113 -13 -155 -29 -90 -110 -210 -91 -135 13 52 -50
172 -72 139 -24 -36 -123 126 -146 238 -11 58 -14 63 -24 43 -7 -12 -17 -44
-23 -72 -20 -94 -38 -51 -41 98 -1 72 -2 78 -7 36 -4 -36 -8 -45 -13 -32 -15
35 -8 96 23 214 29 111 30 126 26 248 -3 72 -9 141 -13 155 l-7 25 23 -20 c13
-11 42 -49 65 -85z m884 -156 c-7 -18 -13 -24 -16 -15 -3 7 -8 9 -12 5 -12
-18 -101 -85 -101 -77 0 12 31 53 72 97 20 21 42 52 50 70 l13 31 3 -41 c2
-22 -2 -53 -9 -70z"/>
<path d="M4235 4624 c-11 -2 -45 -9 -75 -15 -30 -6 -86 -19 -125 -30 -134 -39
-422 -158 -410 -171 3 -3 44 8 90 23 108 36 126 31 83 -23 -27 -35 -29 -40
-11 -34 12 4 54 16 95 27 105 28 122 37 141 68 35 60 79 86 188 115 140 37
157 45 94 44 -27 0 -59 -2 -70 -4z"/>
</g>
</svg>
